<?xml version="1.0" encoding="iso-8859-1"?>
<!-- Generator: Adobe Illustrator 18.1.1, SVG Export Plug-In . SVG Version: 6.00 Build 0)  -->
<svg version="1.1" id="Capa_1" xmlns="http://www.w3.org/2000/svg" xmlns:xlink="http://www.w3.org/1999/xlink" x="0px" y="0px"
	 viewBox="0 0 272.78 272.78" style="enable-background:new 0 0 272.78 272.78;" xml:space="preserve">
<g>
	<path style="fill:#ffffff;" d="M198.152,121.907c0.039-54.642-11.678-110.311-64.711-119.734
		c-8.252-2.653-16.716-2.886-24.992-0.647c-77.87,9.906-66.826,133.728-60.812,192.62c-7.354,29.266,2.426,38.019,28.76,26.918
		c-15.054,39.72,14.47,56.725,35.733,20.188c15.156,50.733,38.83,33.689,34.86-5.054c20.374,36.794,44.282,24.64,34.587-12.099
		v-0.001c23.135,18.503,37.113,3.409,11.614-28.829c1.396-13.254,3.042-28.83,4.04-45.304c5.734-12.583,12.566-8.425,20.797,16.521
		c2.76,9.75,11.605,5.576,11.355-5.68C227.762,122.117,216.576,111.431,198.152,121.907z M96.179,82.46
		c0-10.826,5.545-19.602,12.379-19.602c6.833,0,12.378,8.775,12.378,19.602s-5.545,19.603-12.378,19.603
		C101.724,102.063,96.179,93.287,96.179,82.46z M103.183,156.595c11.031-34.563,57.091-23.027,63.191,0.819L103.183,156.595z
		 M156.28,101.853c-6.833,0-12.379-8.775-12.379-19.603c0-10.827,5.546-19.602,12.379-19.602c6.834,0,12.379,8.774,12.379,19.602
		C168.659,93.077,163.114,101.853,156.28,101.853z"/>
</g>
<g>
</g>
<g>
</g>
<g>
</g>
<g>
</g>
<g>
</g>
<g>
</g>
<g>
</g>
<g>
</g>
<g>
</g>
<g>
</g>
<g>
</g>
<g>
</g>
<g>
</g>
<g>
</g>
<g>
</g>
</svg>
